<?xml version="1.0" encoding="us-ascii" standalone="no"?><svg xmlns="http://www.w3.org/2000/svg" xmlns:xlink="http://www.w3.org/1999/xlink" contentStyleType="text/css" height="456px" preserveAspectRatio="none" style="width:796px;height:456px;background:#FFFFFF;" version="1.1" viewBox="0 0 796 456" width="796px" zoomAndPan="magnify"><defs/><g><text fill="#000000" font-family="sans-serif" font-size="14" font-weight="bold" lengthAdjust="spacing" textLength="40" x="371.25" y="22.9951">sfcdi</text><!--class genre--><g id="elem_genre"><rect codeLine="7" fill="#F1F1F1" height="91.1875" id="genre" rx="2.5" ry="2.5" style="stroke:#181818;stroke-width:0.5;" width="150" x="415" y="318.2969"/><text fill="#000000" font-family="sans-serif" font-size="14" lengthAdjust="spacing" textLength="42" x="469" y="336.292">genre</text><line style="stroke:#181818;stroke-width:0.5;" x1="416" x2="564" y1="344.5938" y2="344.5938"/><ellipse cx="426" cy="358.2422" fill="#000000" rx="3" ry="3" style="stroke:#000000;stroke-width:1.0;"/><text fill="#000000" font-family="sans-serif" font-size="14" lengthAdjust="spacing" textLength="75" x="435" y="361.5889">id: integer</text><line style="stroke:#181818;stroke-width:1.0;" x1="416" x2="564" y1="368.8906" y2="368.8906"/><ellipse cx="426" cy="382.5391" fill="#000000" rx="3" ry="3" style="stroke:#000000;stroke-width:1.0;"/><text fill="#000000" font-family="sans-serif" font-size="14" lengthAdjust="spacing" textLength="83" x="435" y="385.8857">nom: string</text><ellipse cx="426" cy="398.8359" fill="#000000" rx="3" ry="3" style="stroke:#000000;stroke-width:1.0;"/><text fill="#000000" font-family="sans-serif" font-size="14" lengthAdjust="spacing" textLength="122" x="435" y="402.1826">description: text</text></g><!--class etudiant--><g id="elem_etudiant"><rect codeLine="13" fill="#F1F1F1" height="172.6719" id="etudiant" rx="2.5" ry="2.5" style="stroke:#181818;stroke-width:0.5;" width="152" x="69" y="44.2969"/><text fill="#000000" font-family="sans-serif" font-size="14" lengthAdjust="spacing" textLength="61" x="114.5" y="62.292">etudiant</text><line style="stroke:#181818;stroke-width:0.5;" x1="70" x2="220" y1="70.5938" y2="70.5938"/><ellipse cx="80" cy="84.2422" fill="#000000" rx="3" ry="3" style="stroke:#000000;stroke-width:1.0;"/><text fill="#000000" font-family="sans-serif" font-size="14" lengthAdjust="spacing" textLength="75" x="89" y="87.5889">id: integer</text><line style="stroke:#181818;stroke-width:1.0;" x1="70" x2="220" y1="94.8906" y2="94.8906"/><ellipse cx="80" cy="108.5391" fill="#000000" rx="3" ry="3" style="stroke:#000000;stroke-width:1.0;"/><text fill="#000000" font-family="sans-serif" font-size="14" lengthAdjust="spacing" textLength="90" x="89" y="111.8857">email: string</text><ellipse cx="80" cy="124.8359" fill="#000000" rx="3" ry="3" style="stroke:#000000;stroke-width:1.0;"/><text fill="#000000" font-family="sans-serif" font-size="14" lengthAdjust="spacing" textLength="73" x="89" y="128.1826">roles: json</text><ellipse cx="80" cy="141.1328" fill="#000000" rx="3" ry="3" style="stroke:#000000;stroke-width:1.0;"/><text fill="#000000" font-family="sans-serif" font-size="14" lengthAdjust="spacing" textLength="118" x="89" y="144.4795">password: string</text><text fill="#000000" font-family="sans-serif" font-size="14" lengthAdjust="spacing" textLength="83" x="89" y="160.7764">nom: string</text><text fill="#000000" font-family="sans-serif" font-size="14" lengthAdjust="spacing" textLength="108" x="89" y="177.0732">prenom: string</text><text fill="#000000" font-family="sans-serif" font-size="14" lengthAdjust="spacing" textLength="126" x="89" y="193.3701">telephone: string</text><text fill="#000000" font-family="sans-serif" font-size="14" lengthAdjust="spacing" textLength="96" x="89" y="209.667">avatar: string</text></g><!--class doctrine_migration_versions--><g id="elem_doctrine_migration_versions"><rect codeLine="24" fill="#F1F1F1" height="91.1875" id="doctrine_migration_versions" rx="2.5" ry="2.5" style="stroke:#181818;stroke-width:0.5;" width="210" x="256" y="85.2969"/><text fill="#000000" font-family="sans-serif" font-size="14" lengthAdjust="spacing" textLength="204" x="259" y="103.292">doctrine_migration_versions</text><line style="stroke:#181818;stroke-width:0.5;" x1="257" x2="465" y1="111.5938" y2="111.5938"/><ellipse cx="267" cy="125.2422" fill="#000000" rx="3" ry="3" style="stroke:#000000;stroke-width:1.0;"/><text fill="#000000" font-family="sans-serif" font-size="14" lengthAdjust="spacing" textLength="103" x="276" y="128.5889">version: string</text><line style="stroke:#181818;stroke-width:1.0;" x1="257" x2="465" y1="135.8906" y2="135.8906"/><text fill="#000000" font-family="sans-serif" font-size="14" lengthAdjust="spacing" textLength="165" x="262" y="152.8857">executed_at: datetime</text><text fill="#000000" font-family="sans-serif" font-size="14" lengthAdjust="spacing" textLength="174" x="262" y="169.1826">execution_time: integer</text></g><!--class livre--><g id="elem_livre"><rect codeLine="30" fill="#F1F1F1" height="172.6719" id="livre" rx="2.5" ry="2.5" style="stroke:#181818;stroke-width:0.5;" width="189" x="600.5" y="277.2969"/><text fill="#000000" font-family="sans-serif" font-size="14" lengthAdjust="spacing" textLength="31" x="679.5" y="295.292">livre</text><line style="stroke:#181818;stroke-width:0.5;" x1="601.5" x2="788.5" y1="303.5938" y2="303.5938"/><ellipse cx="611.5" cy="317.2422" fill="#000000" rx="3" ry="3" style="stroke:#000000;stroke-width:1.0;"/><text fill="#000000" font-family="sans-serif" font-size="14" lengthAdjust="spacing" textLength="75" x="620.5" y="320.5889">id: integer</text><line style="stroke:#181818;stroke-width:1.0;" x1="601.5" x2="788.5" y1="327.8906" y2="327.8906"/><ellipse cx="611.5" cy="341.5391" fill="#000000" rx="3" ry="3" style="stroke:#000000;stroke-width:1.0;"/><text fill="#000000" font-family="sans-serif" font-size="14" lengthAdjust="spacing" textLength="84" x="620.5" y="344.8857">titre: string</text><ellipse cx="611.5" cy="357.8359" fill="#000000" rx="3" ry="3" style="stroke:#000000;stroke-width:1.0;"/><text fill="#000000" font-family="sans-serif" font-size="14" lengthAdjust="spacing" textLength="97" x="620.5" y="361.1826">auteur: string</text><ellipse cx="611.5" cy="374.1328" fill="#000000" rx="3" ry="3" style="stroke:#000000;stroke-width:1.0;"/><text fill="#000000" font-family="sans-serif" font-size="14" lengthAdjust="spacing" textLength="103" x="620.5" y="377.4795">editeur: string</text><ellipse cx="611.5" cy="390.4297" fill="#000000" rx="3" ry="3" style="stroke:#000000;stroke-width:1.0;"/><text fill="#000000" font-family="sans-serif" font-size="14" lengthAdjust="spacing" textLength="81" x="620.5" y="393.7764">isbn: string</text><ellipse cx="611.5" cy="406.7266" fill="#000000" rx="3" ry="3" style="stroke:#000000;stroke-width:1.0;"/><text fill="#000000" font-family="sans-serif" font-size="14" lengthAdjust="spacing" textLength="163" x="620.5" y="410.0732">date_publication: date</text><text fill="#000000" font-family="sans-serif" font-size="14" lengthAdjust="spacing" textLength="95" x="620.5" y="426.3701">image: string</text><ellipse cx="611.5" cy="439.3203" fill="#000000" rx="3" ry="3" style="stroke:#000000;stroke-width:1.0;"/><text fill="#000000" font-family="sans-serif" font-size="14" lengthAdjust="spacing" textLength="93" x="620.5" y="442.667">resume: text</text></g><!--class messenger_messages--><g id="elem_messenger_messages"><rect codeLine="41" fill="#F1F1F1" height="156.375" id="messenger_messages" rx="2.5" ry="2.5" style="stroke:#181818;stroke-width:0.5;" width="276" x="7" y="285.7969"/><text fill="#000000" font-family="sans-serif" font-size="14" lengthAdjust="spacing" textLength="156" x="67" y="303.792">messenger_messages</text><line style="stroke:#181818;stroke-width:0.5;" x1="8" x2="282" y1="312.0938" y2="312.0938"/><ellipse cx="18" cy="325.7422" fill="#000000" rx="3" ry="3" style="stroke:#000000;stroke-width:1.0;"/><text fill="#000000" font-family="sans-serif" font-size="14" lengthAdjust="spacing" textLength="65" x="27" y="329.0889">id: bigint</text><line style="stroke:#181818;stroke-width:1.0;" x1="8" x2="282" y1="336.3906" y2="336.3906"/><ellipse cx="18" cy="350.0391" fill="#000000" rx="3" ry="3" style="stroke:#000000;stroke-width:1.0;"/><text fill="#000000" font-family="sans-serif" font-size="14" lengthAdjust="spacing" textLength="76" x="27" y="353.3857">body: text</text><ellipse cx="18" cy="366.3359" fill="#000000" rx="3" ry="3" style="stroke:#000000;stroke-width:1.0;"/><text fill="#000000" font-family="sans-serif" font-size="14" lengthAdjust="spacing" textLength="97" x="27" y="369.6826">headers: text</text><ellipse cx="18" cy="382.6328" fill="#000000" rx="3" ry="3" style="stroke:#000000;stroke-width:1.0;"/><text fill="#000000" font-family="sans-serif" font-size="14" lengthAdjust="spacing" textLength="141" x="27" y="385.9795">queue_name: string</text><ellipse cx="18" cy="398.9297" fill="#000000" rx="3" ry="3" style="stroke:#000000;stroke-width:1.0;"/><text fill="#000000" font-family="sans-serif" font-size="14" lengthAdjust="spacing" textLength="239" x="27" y="402.2764">created_at: datetime_immutable</text><ellipse cx="18" cy="415.2266" fill="#000000" rx="3" ry="3" style="stroke:#000000;stroke-width:1.0;"/><text fill="#000000" font-family="sans-serif" font-size="14" lengthAdjust="spacing" textLength="246" x="27" y="418.5732">available_at: datetime_immutable</text><text fill="#000000" font-family="sans-serif" font-size="14" lengthAdjust="spacing" textLength="250" x="27" y="434.8701">delivered_at: datetime_immutable</text></g><!--class livre_genre--><g id="elem_livre_genre"><rect codeLine="51" fill="#F1F1F1" height="74.8906" id="livre_genre" rx="2.5" ry="2.5" style="stroke:#181818;stroke-width:0.5;" width="150" x="512" y="93.2969"/><text fill="#000000" font-family="sans-serif" font-size="14" lengthAdjust="spacing" textLength="80" x="547" y="111.292">livre_genre</text><line style="stroke:#181818;stroke-width:0.5;" x1="513" x2="661" y1="119.5938" y2="119.5938"/><ellipse cx="523" cy="133.2422" fill="#000000" rx="3" ry="3" style="stroke:#000000;stroke-width:1.0;"/><text fill="#000000" font-family="sans-serif" font-size="14" lengthAdjust="spacing" textLength="113" x="532" y="136.5889">livre_id: integer</text><ellipse cx="523" cy="149.5391" fill="#000000" rx="3" ry="3" style="stroke:#000000;stroke-width:1.0;"/><text fill="#000000" font-family="sans-serif" font-size="14" lengthAdjust="spacing" textLength="124" x="532" y="152.8857">genre_id: integer</text><line style="stroke:#181818;stroke-width:1.0;" x1="513" x2="661" y1="160.1875" y2="160.1875"/></g><!--link livre_genre to genre--><g id="link_livre_genre_genre"><path codeLine="56" d="M538.5,186.4909 C538.5,227.3199 538.5,266.4589 538.5,310.1539 " fill="none" id="livre_genre-genre" style="stroke:#181818;stroke-width:1.0;"/><line style="stroke:#181818;stroke-width:1.0;" x1="538.5" x2="532.5" y1="176.4909" y2="168.4909"/><line style="stroke:#181818;stroke-width:1.0;" x1="538.5" x2="544.5" y1="176.4909" y2="168.4909"/><line style="stroke:#181818;stroke-width:1.0;" x1="538.5" x2="538.5" y1="176.4909" y2="168.4909"/><ellipse cx="538.5" cy="182.4909" fill="none" rx="4" ry="4" style="stroke:#181818;stroke-width:1.0;"/><line style="stroke:#181818;stroke-width:1.0;" x1="542.5" x2="534.5" y1="314.1539" y2="314.1539"/><line style="stroke:#181818;stroke-width:1.0;" x1="542.5" x2="534.5" y1="311.1539" y2="311.1539"/><line style="stroke:#181818;stroke-width:1.0;" x1="538.5" x2="538.5" y1="310.1539" y2="318.1539"/></g><!--link livre_genre to livre--><g id="link_livre_genre_livre"><path codeLine="57" d="M631.25,186.4909 C631.25,215.8569 631.25,231.7989 631.25,269.2929 " fill="none" id="livre_genre-livre" style="stroke:#181818;stroke-width:1.0;"/><line style="stroke:#181818;stroke-width:1.0;" x1="631.25" x2="625.25" y1="176.4909" y2="168.4909"/><line style="stroke:#181818;stroke-width:1.0;" x1="631.25" x2="637.25" y1="176.4909" y2="168.4909"/><line style="stroke:#181818;stroke-width:1.0;" x1="631.25" x2="631.25" y1="176.4909" y2="168.4909"/><ellipse cx="631.25" cy="182.4909" fill="none" rx="4" ry="4" style="stroke:#181818;stroke-width:1.0;"/><line style="stroke:#181818;stroke-width:1.0;" x1="635.25" x2="627.25" y1="273.2929" y2="273.2929"/><line style="stroke:#181818;stroke-width:1.0;" x1="635.25" x2="627.25" y1="270.2929" y2="270.2929"/><line style="stroke:#181818;stroke-width:1.0;" x1="631.25" x2="631.25" y1="269.2929" y2="277.2929"/></g><!--SRC=[TLAnRjim4Dtv5TVLW85qoA8rQuii1JeIbFWgNIkI2dboOYJ-znwZH9QDU9BUEzxZkySRs8CG9ZbIG6YHYnagrN7kHfZoZ-FaiWlqa-F3w4hvpLu6-dv_jwdzu8XVnmdqc6L8HbX6KFdJUJRVP400sPWYh47Ksf5wn0nwDJjYtn17GOzizdibOWeD5SaSUqKUfSiy2QVOaE15pEbJ0p9xTb6-ba5mF6w4SXfH6lfRKbGqwHpFAVlrmCMrD6LSOC68QT01pfGxE75vnQihdxhAm0Rkiwk-xK4prMzvD_e1raOrItX1DmkyTTAGTmBXW4-wAbHydc-zQ-J3hHIrdh4Ptwd-d3S4F5ynNDguJLvzs6bkH-xS4dzb375m_LOveypLtUNZ19I2g7Pi_TEEilfikLUhYyqs-UD7wuu6EA_fhFXfnWmRNTXUrsMuwwWiXp2BQtLTT_LXUAp_juxeJcbmoBT5BWEsvsLTy3RitRBAzke1JcRRUahx_TlRSlAhmZlr7m00]--></g></svg>